<mxfile host="app.diagrams.net" modified="2023-12-26T12:01:56.533Z" agent="Mozilla/5.0 (Windows NT 10.0; Win64; x64; rv:121.0) Gecko/20100101 Firefox/121.0" etag="BX9h1PsaydwO5Kgga8yf" version="22.1.11" type="device">
  <diagram name="PÃ¡gina-1" id="gfXvwMwO8J3uMLfQ2I3N">
    <mxGraphModel dx="1194" dy="716" grid="1" gridSize="10" guides="1" tooltips="1" connect="1" arrows="1" fold="1" page="1" pageScale="1" pageWidth="827" pageHeight="1169" math="0" shadow="0">
      <root>
        <mxCell id="0" />
        <mxCell id="1" parent="0" />
        <mxCell id="I5zigu2aDJ0kDBNzwxJA-1" value="" style="outlineConnect=0;dashed=0;verticalLabelPosition=bottom;verticalAlign=top;align=center;html=1;shape=mxgraph.aws3.bucket;fillColor=#cce5ff;strokeColor=#36393d;" vertex="1" parent="1">
          <mxGeometry x="260" y="210" width="120" height="140" as="geometry" />
        </mxCell>
        <mxCell id="I5zigu2aDJ0kDBNzwxJA-3" value="" style="ellipse;whiteSpace=wrap;html=1;aspect=fixed;fillColor=#f8cecc;strokeColor=#b85450;" vertex="1" parent="1">
          <mxGeometry x="280" y="325" width="10" height="10" as="geometry" />
        </mxCell>
        <mxCell id="I5zigu2aDJ0kDBNzwxJA-13" value="" style="ellipse;whiteSpace=wrap;html=1;aspect=fixed;fillColor=#f8cecc;strokeColor=#b85450;" vertex="1" parent="1">
          <mxGeometry x="324" y="331" width="10" height="10" as="geometry" />
        </mxCell>
        <mxCell id="I5zigu2aDJ0kDBNzwxJA-17" value="" style="ellipse;whiteSpace=wrap;html=1;aspect=fixed;fillColor=#f8cecc;strokeColor=#b85450;" vertex="1" parent="1">
          <mxGeometry x="295" y="330" width="10" height="10" as="geometry" />
        </mxCell>
        <mxCell id="I5zigu2aDJ0kDBNzwxJA-18" value="" style="ellipse;whiteSpace=wrap;html=1;aspect=fixed;fillColor=#f8cecc;strokeColor=#b85450;" vertex="1" parent="1">
          <mxGeometry x="309" y="331" width="10" height="10" as="geometry" />
        </mxCell>
        <mxCell id="I5zigu2aDJ0kDBNzwxJA-19" value="" style="ellipse;whiteSpace=wrap;html=1;aspect=fixed;fillColor=#f8cecc;strokeColor=#b85450;" vertex="1" parent="1">
          <mxGeometry x="337" y="329" width="10" height="10" as="geometry" />
        </mxCell>
        <mxCell id="I5zigu2aDJ0kDBNzwxJA-20" value="" style="ellipse;whiteSpace=wrap;html=1;aspect=fixed;fillColor=#f8cecc;strokeColor=#b85450;" vertex="1" parent="1">
          <mxGeometry x="349" y="324" width="10" height="10" as="geometry" />
        </mxCell>
        <mxCell id="I5zigu2aDJ0kDBNzwxJA-21" value="" style="ellipse;whiteSpace=wrap;html=1;aspect=fixed;fillColor=#f8cecc;strokeColor=#b85450;" vertex="1" parent="1">
          <mxGeometry x="339" y="316" width="10" height="10" as="geometry" />
        </mxCell>
        <mxCell id="I5zigu2aDJ0kDBNzwxJA-22" value="" style="ellipse;whiteSpace=wrap;html=1;aspect=fixed;fillColor=#f8cecc;strokeColor=#b85450;" vertex="1" parent="1">
          <mxGeometry x="327" y="319" width="9" height="10" as="geometry" />
        </mxCell>
        <mxCell id="I5zigu2aDJ0kDBNzwxJA-23" value="" style="ellipse;whiteSpace=wrap;html=1;aspect=fixed;fillColor=#f8cecc;strokeColor=#b85450;" vertex="1" parent="1">
          <mxGeometry x="314" y="320" width="10" height="10" as="geometry" />
        </mxCell>
        <mxCell id="I5zigu2aDJ0kDBNzwxJA-24" value="" style="ellipse;whiteSpace=wrap;html=1;aspect=fixed;fillColor=#f8cecc;strokeColor=#b85450;" vertex="1" parent="1">
          <mxGeometry x="300" y="319" width="10" height="10" as="geometry" />
        </mxCell>
        <mxCell id="I5zigu2aDJ0kDBNzwxJA-25" value="" style="ellipse;whiteSpace=wrap;html=1;aspect=fixed;fillColor=#f8cecc;strokeColor=#b85450;" vertex="1" parent="1">
          <mxGeometry x="286" y="316" width="10" height="9" as="geometry" />
        </mxCell>
        <mxCell id="I5zigu2aDJ0kDBNzwxJA-26" value="" style="ellipse;whiteSpace=wrap;html=1;aspect=fixed;fillColor=#f8cecc;strokeColor=#b85450;" vertex="1" parent="1">
          <mxGeometry x="353" y="311" width="10" height="10" as="geometry" />
        </mxCell>
        <mxCell id="I5zigu2aDJ0kDBNzwxJA-27" value="" style="ellipse;whiteSpace=wrap;html=1;aspect=fixed;fillColor=#f8cecc;strokeColor=#b85450;" vertex="1" parent="1">
          <mxGeometry x="276" y="311" width="9" height="10" as="geometry" />
        </mxCell>
        <mxCell id="I5zigu2aDJ0kDBNzwxJA-28" value="" style="ellipse;whiteSpace=wrap;html=1;aspect=fixed;fillColor=#f8cecc;strokeColor=#b85450;" vertex="1" parent="1">
          <mxGeometry x="286" y="305" width="9" height="10" as="geometry" />
        </mxCell>
        <mxCell id="I5zigu2aDJ0kDBNzwxJA-29" value="" style="ellipse;whiteSpace=wrap;html=1;aspect=fixed;fillColor=#f8cecc;strokeColor=#b85450;" vertex="1" parent="1">
          <mxGeometry x="297" y="309" width="9" height="9" as="geometry" />
        </mxCell>
        <mxCell id="I5zigu2aDJ0kDBNzwxJA-30" value="" style="ellipse;whiteSpace=wrap;html=1;aspect=fixed;fillColor=#f8cecc;strokeColor=#b85450;" vertex="1" parent="1">
          <mxGeometry x="308" y="310" width="9" height="10" as="geometry" />
        </mxCell>
        <mxCell id="I5zigu2aDJ0kDBNzwxJA-31" value="" style="ellipse;whiteSpace=wrap;html=1;aspect=fixed;fillColor=#f8cecc;strokeColor=#b85450;" vertex="1" parent="1">
          <mxGeometry x="320" y="310" width="9" height="10" as="geometry" />
        </mxCell>
        <mxCell id="I5zigu2aDJ0kDBNzwxJA-32" value="" style="ellipse;whiteSpace=wrap;html=1;aspect=fixed;fillColor=#f8cecc;strokeColor=#b85450;" vertex="1" parent="1">
          <mxGeometry x="333" y="308" width="9" height="10" as="geometry" />
        </mxCell>
        <mxCell id="I5zigu2aDJ0kDBNzwxJA-33" value="" style="ellipse;whiteSpace=wrap;html=1;aspect=fixed;fillColor=#f8cecc;strokeColor=#b85450;" vertex="1" parent="1">
          <mxGeometry x="344" y="304" width="9" height="10" as="geometry" />
        </mxCell>
        <mxCell id="I5zigu2aDJ0kDBNzwxJA-34" value="" style="ellipse;whiteSpace=wrap;html=1;aspect=fixed;fillColor=#f8cecc;strokeColor=#b85450;" vertex="1" parent="1">
          <mxGeometry x="298" y="289" width="9" height="10" as="geometry" />
        </mxCell>
        <mxCell id="I5zigu2aDJ0kDBNzwxJA-35" value="" style="ellipse;whiteSpace=wrap;html=1;aspect=fixed;fillColor=#f8cecc;strokeColor=#b85450;" vertex="1" parent="1">
          <mxGeometry x="330" y="275" width="9" height="10" as="geometry" />
        </mxCell>
        <mxCell id="I5zigu2aDJ0kDBNzwxJA-36" value="" style="ellipse;whiteSpace=wrap;html=1;aspect=fixed;fillColor=#f8cecc;strokeColor=#b85450;" vertex="1" parent="1">
          <mxGeometry x="296" y="262" width="9" height="10" as="geometry" />
        </mxCell>
        <mxCell id="I5zigu2aDJ0kDBNzwxJA-37" value="" style="ellipse;whiteSpace=wrap;html=1;aspect=fixed;fillColor=#f8cecc;strokeColor=#b85450;" vertex="1" parent="1">
          <mxGeometry x="325" y="257" width="9" height="10" as="geometry" />
        </mxCell>
        <mxCell id="I5zigu2aDJ0kDBNzwxJA-38" value="" style="ellipse;whiteSpace=wrap;html=1;aspect=fixed;fillColor=#f8cecc;strokeColor=#b85450;" vertex="1" parent="1">
          <mxGeometry x="319" y="224" width="9" height="10" as="geometry" />
        </mxCell>
        <mxCell id="I5zigu2aDJ0kDBNzwxJA-39" value="" style="ellipse;whiteSpace=wrap;html=1;aspect=fixed;fillColor=#f8cecc;strokeColor=#b85450;" vertex="1" parent="1">
          <mxGeometry x="293" y="221" width="9" height="10" as="geometry" />
        </mxCell>
        <mxCell id="I5zigu2aDJ0kDBNzwxJA-40" value="" style="ellipse;whiteSpace=wrap;html=1;aspect=fixed;fillColor=#f8cecc;strokeColor=#b85450;" vertex="1" parent="1">
          <mxGeometry x="290" y="189" width="9" height="10" as="geometry" />
        </mxCell>
        <mxCell id="I5zigu2aDJ0kDBNzwxJA-41" value="" style="ellipse;whiteSpace=wrap;html=1;aspect=fixed;fillColor=#f8cecc;strokeColor=#b85450;" vertex="1" parent="1">
          <mxGeometry x="306" y="175" width="9" height="10" as="geometry" />
        </mxCell>
        <mxCell id="I5zigu2aDJ0kDBNzwxJA-42" value="" style="ellipse;whiteSpace=wrap;html=1;aspect=fixed;fillColor=#f8cecc;strokeColor=#b85450;" vertex="1" parent="1">
          <mxGeometry x="323" y="186" width="9" height="10" as="geometry" />
        </mxCell>
        <mxCell id="I5zigu2aDJ0kDBNzwxJA-44" value="" style="curved=1;endArrow=classic;html=1;rounded=0;strokeWidth=4;" edge="1" parent="1">
          <mxGeometry width="50" height="50" relative="1" as="geometry">
            <mxPoint x="160" y="180" as="sourcePoint" />
            <mxPoint x="276" y="190" as="targetPoint" />
            <Array as="points">
              <mxPoint x="186" y="80" />
            </Array>
          </mxGeometry>
        </mxCell>
        <mxCell id="I5zigu2aDJ0kDBNzwxJA-45" value="" style="endArrow=classic;startArrow=classic;html=1;rounded=0;strokeWidth=4;" edge="1" parent="1">
          <mxGeometry width="50" height="50" relative="1" as="geometry">
            <mxPoint x="210" y="360" as="sourcePoint" />
            <mxPoint x="210" y="220" as="targetPoint" />
          </mxGeometry>
        </mxCell>
        <mxCell id="I5zigu2aDJ0kDBNzwxJA-46" value="BC" style="text;html=1;strokeColor=none;fillColor=none;align=center;verticalAlign=middle;whiteSpace=wrap;rounded=0;fontSize=16;fontStyle=1" vertex="1" parent="1">
          <mxGeometry x="120" y="265" width="60" height="30" as="geometry" />
        </mxCell>
        <mxCell id="I5zigu2aDJ0kDBNzwxJA-47" value="" style="curved=1;endArrow=classic;html=1;rounded=0;strokeWidth=4;" edge="1" parent="1">
          <mxGeometry width="50" height="50" relative="1" as="geometry">
            <mxPoint x="356" y="221" as="sourcePoint" />
            <mxPoint x="490" y="260" as="targetPoint" />
            <Array as="points">
              <mxPoint x="382" y="121" />
              <mxPoint x="460" y="180" />
            </Array>
          </mxGeometry>
        </mxCell>
        <mxCell id="I5zigu2aDJ0kDBNzwxJA-49" value="" style="ellipse;whiteSpace=wrap;html=1;fillColor=#f5f5f5;strokeColor=#666666;gradientColor=#b3b3b3;" vertex="1" parent="1">
          <mxGeometry x="450" y="312.5" width="120" height="27.5" as="geometry" />
        </mxCell>
        <mxCell id="I5zigu2aDJ0kDBNzwxJA-48" value="" style="ellipse;whiteSpace=wrap;html=1;fillColor=#dae8fc;strokeColor=#6c8ebf;" vertex="1" parent="1">
          <mxGeometry x="450" y="305.75" width="120" height="28.25" as="geometry" />
        </mxCell>
        <mxCell id="I5zigu2aDJ0kDBNzwxJA-50" value="" style="ellipse;whiteSpace=wrap;html=1;aspect=fixed;fillColor=#f8cecc;strokeColor=#b85450;" vertex="1" parent="1">
          <mxGeometry x="500" y="275" width="9" height="10" as="geometry" />
        </mxCell>
        <mxCell id="I5zigu2aDJ0kDBNzwxJA-51" value="" style="ellipse;whiteSpace=wrap;html=1;aspect=fixed;fillColor=#f8cecc;strokeColor=#b85450;" vertex="1" parent="1">
          <mxGeometry x="490" y="309" width="9" height="10" as="geometry" />
        </mxCell>
        <mxCell id="I5zigu2aDJ0kDBNzwxJA-52" value="" style="ellipse;whiteSpace=wrap;html=1;aspect=fixed;fillColor=#f8cecc;strokeColor=#b85450;" vertex="1" parent="1">
          <mxGeometry x="520" y="314.88" width="9" height="10" as="geometry" />
        </mxCell>
        <mxCell id="I5zigu2aDJ0kDBNzwxJA-53" value="" style="ellipse;whiteSpace=wrap;html=1;aspect=fixed;fillColor=#f8cecc;strokeColor=#b85450;" vertex="1" parent="1">
          <mxGeometry x="529" y="289" width="9" height="10" as="geometry" />
        </mxCell>
        <mxCell id="I5zigu2aDJ0kDBNzwxJA-54" value="TOKENS EM EXCESSO SÃO DESCARTADOS" style="text;html=1;strokeColor=none;fillColor=none;align=center;verticalAlign=middle;whiteSpace=wrap;rounded=0;fontSize=16;fontStyle=1" vertex="1" parent="1">
          <mxGeometry x="480" y="189" width="206.5" height="30" as="geometry" />
        </mxCell>
      </root>
    </mxGraphModel>
  </diagram>
</mxfile>
